<mxfile host="app.diagrams.net" modified="2023-07-16T20:15:56.795Z" agent="Mozilla/5.0 (X11; Linux x86_64) AppleWebKit/537.36 (KHTML, like Gecko) Chrome/114.0.0.0 Safari/537.36" etag="E3vGkOEc6rwlbOIWggvm" version="21.6.2" type="github">
  <diagram name="Page-1" id="kLeC5aWb9Zuu49NkkMoh">
    <mxGraphModel dx="6162" dy="1109" grid="1" gridSize="10" guides="1" tooltips="1" connect="1" arrows="1" fold="1" page="1" pageScale="1" pageWidth="850" pageHeight="1100" math="0" shadow="0">
      <root>
        <mxCell id="0" />
        <mxCell id="1" parent="0" />
        <mxCell id="GEZRF7LmWpL6LQjUL8pA-1" style="edgeStyle=orthogonalEdgeStyle;rounded=0;orthogonalLoop=1;jettySize=auto;html=1;entryX=0.5;entryY=1;entryDx=0;entryDy=0;endArrow=none;endFill=0;" parent="1" source="GEZRF7LmWpL6LQjUL8pA-4" target="GEZRF7LmWpL6LQjUL8pA-107" edge="1">
          <mxGeometry relative="1" as="geometry" />
        </mxCell>
        <mxCell id="GEZRF7LmWpL6LQjUL8pA-2" value="0.n" style="edgeLabel;html=1;align=center;verticalAlign=middle;resizable=0;points=[];" parent="GEZRF7LmWpL6LQjUL8pA-1" vertex="1" connectable="0">
          <mxGeometry x="0.7661" y="-1" relative="1" as="geometry">
            <mxPoint as="offset" />
          </mxGeometry>
        </mxCell>
        <mxCell id="GEZRF7LmWpL6LQjUL8pA-3" value="1.1" style="edgeLabel;html=1;align=center;verticalAlign=middle;resizable=0;points=[];" parent="GEZRF7LmWpL6LQjUL8pA-1" vertex="1" connectable="0">
          <mxGeometry x="-0.7543" y="-1" relative="1" as="geometry">
            <mxPoint as="offset" />
          </mxGeometry>
        </mxCell>
        <mxCell id="GEZRF7LmWpL6LQjUL8pA-4" value="WorkSpace" style="swimlane;fontStyle=1;align=center;verticalAlign=top;childLayout=stackLayout;horizontal=1;startSize=26;horizontalStack=0;resizeParent=1;resizeParentMax=0;resizeLast=0;collapsible=1;marginBottom=0;whiteSpace=wrap;html=1;" parent="1" vertex="1">
          <mxGeometry x="-2640" y="460" width="160" height="190" as="geometry" />
        </mxCell>
        <mxCell id="GEZRF7LmWpL6LQjUL8pA-5" value="+ id: number" style="text;strokeColor=none;fillColor=none;align=left;verticalAlign=top;spacingLeft=4;spacingRight=4;overflow=hidden;rotatable=0;points=[[0,0.5],[1,0.5]];portConstraint=eastwest;whiteSpace=wrap;html=1;" parent="GEZRF7LmWpL6LQjUL8pA-4" vertex="1">
          <mxGeometry y="26" width="160" height="26" as="geometry" />
        </mxCell>
        <mxCell id="GEZRF7LmWpL6LQjUL8pA-6" value="+ name: string" style="text;strokeColor=none;fillColor=none;align=left;verticalAlign=top;spacingLeft=4;spacingRight=4;overflow=hidden;rotatable=0;points=[[0,0.5],[1,0.5]];portConstraint=eastwest;whiteSpace=wrap;html=1;" parent="GEZRF7LmWpL6LQjUL8pA-4" vertex="1">
          <mxGeometry y="52" width="160" height="26" as="geometry" />
        </mxCell>
        <mxCell id="yAE9XLFauvHRIwuhdHwT-1" value="+ description?: string" style="text;strokeColor=none;fillColor=none;align=left;verticalAlign=top;spacingLeft=4;spacingRight=4;overflow=hidden;rotatable=0;points=[[0,0.5],[1,0.5]];portConstraint=eastwest;whiteSpace=wrap;html=1;" vertex="1" parent="GEZRF7LmWpL6LQjUL8pA-4">
          <mxGeometry y="78" width="160" height="26" as="geometry" />
        </mxCell>
        <mxCell id="GEZRF7LmWpL6LQjUL8pA-7" value="+ owner: User" style="text;strokeColor=none;fillColor=none;align=left;verticalAlign=top;spacingLeft=4;spacingRight=4;overflow=hidden;rotatable=0;points=[[0,0.5],[1,0.5]];portConstraint=eastwest;whiteSpace=wrap;html=1;" parent="GEZRF7LmWpL6LQjUL8pA-4" vertex="1">
          <mxGeometry y="104" width="160" height="26" as="geometry" />
        </mxCell>
        <mxCell id="GEZRF7LmWpL6LQjUL8pA-9" value="+ createdAt: Date" style="text;strokeColor=none;fillColor=none;align=left;verticalAlign=top;spacingLeft=4;spacingRight=4;overflow=hidden;rotatable=0;points=[[0,0.5],[1,0.5]];portConstraint=eastwest;whiteSpace=wrap;html=1;" parent="GEZRF7LmWpL6LQjUL8pA-4" vertex="1">
          <mxGeometry y="130" width="160" height="26" as="geometry" />
        </mxCell>
        <mxCell id="GEZRF7LmWpL6LQjUL8pA-10" value="+ updatedAt: Date" style="text;strokeColor=none;fillColor=none;align=left;verticalAlign=top;spacingLeft=4;spacingRight=4;overflow=hidden;rotatable=0;points=[[0,0.5],[1,0.5]];portConstraint=eastwest;whiteSpace=wrap;html=1;" parent="GEZRF7LmWpL6LQjUL8pA-4" vertex="1">
          <mxGeometry y="156" width="160" height="26" as="geometry" />
        </mxCell>
        <mxCell id="GEZRF7LmWpL6LQjUL8pA-11" value="" style="line;strokeWidth=1;fillColor=none;align=left;verticalAlign=middle;spacingTop=-1;spacingLeft=3;spacingRight=3;rotatable=0;labelPosition=right;points=[];portConstraint=eastwest;strokeColor=inherit;" parent="GEZRF7LmWpL6LQjUL8pA-4" vertex="1">
          <mxGeometry y="182" width="160" height="8" as="geometry" />
        </mxCell>
        <mxCell id="GEZRF7LmWpL6LQjUL8pA-12" value="User" style="swimlane;fontStyle=1;align=center;verticalAlign=top;childLayout=stackLayout;horizontal=1;startSize=26;horizontalStack=0;resizeParent=1;resizeParentMax=0;resizeLast=0;collapsible=1;marginBottom=0;whiteSpace=wrap;html=1;" parent="1" vertex="1">
          <mxGeometry x="-3080" y="460" width="160" height="242" as="geometry" />
        </mxCell>
        <mxCell id="GEZRF7LmWpL6LQjUL8pA-13" value="+ id: number" style="text;strokeColor=none;fillColor=none;align=left;verticalAlign=top;spacingLeft=4;spacingRight=4;overflow=hidden;rotatable=0;points=[[0,0.5],[1,0.5]];portConstraint=eastwest;whiteSpace=wrap;html=1;" parent="GEZRF7LmWpL6LQjUL8pA-12" vertex="1">
          <mxGeometry y="26" width="160" height="26" as="geometry" />
        </mxCell>
        <mxCell id="GEZRF7LmWpL6LQjUL8pA-14" value="+ name: string" style="text;strokeColor=none;fillColor=none;align=left;verticalAlign=top;spacingLeft=4;spacingRight=4;overflow=hidden;rotatable=0;points=[[0,0.5],[1,0.5]];portConstraint=eastwest;whiteSpace=wrap;html=1;" parent="GEZRF7LmWpL6LQjUL8pA-12" vertex="1">
          <mxGeometry y="52" width="160" height="26" as="geometry" />
        </mxCell>
        <mxCell id="GEZRF7LmWpL6LQjUL8pA-15" value="+ email: string" style="text;strokeColor=none;fillColor=none;align=left;verticalAlign=top;spacingLeft=4;spacingRight=4;overflow=hidden;rotatable=0;points=[[0,0.5],[1,0.5]];portConstraint=eastwest;whiteSpace=wrap;html=1;" parent="GEZRF7LmWpL6LQjUL8pA-12" vertex="1">
          <mxGeometry y="78" width="160" height="26" as="geometry" />
        </mxCell>
        <mxCell id="GEZRF7LmWpL6LQjUL8pA-16" value="+ image?: string" style="text;strokeColor=none;fillColor=none;align=left;verticalAlign=top;spacingLeft=4;spacingRight=4;overflow=hidden;rotatable=0;points=[[0,0.5],[1,0.5]];portConstraint=eastwest;whiteSpace=wrap;html=1;" parent="GEZRF7LmWpL6LQjUL8pA-12" vertex="1">
          <mxGeometry y="104" width="160" height="26" as="geometry" />
        </mxCell>
        <mxCell id="GEZRF7LmWpL6LQjUL8pA-17" value="+ role: Role" style="text;strokeColor=none;fillColor=none;align=left;verticalAlign=top;spacingLeft=4;spacingRight=4;overflow=hidden;rotatable=0;points=[[0,0.5],[1,0.5]];portConstraint=eastwest;whiteSpace=wrap;html=1;" parent="GEZRF7LmWpL6LQjUL8pA-12" vertex="1">
          <mxGeometry y="130" width="160" height="26" as="geometry" />
        </mxCell>
        <mxCell id="GEZRF7LmWpL6LQjUL8pA-18" value="+ subscription: Subscription" style="text;strokeColor=none;fillColor=none;align=left;verticalAlign=top;spacingLeft=4;spacingRight=4;overflow=hidden;rotatable=0;points=[[0,0.5],[1,0.5]];portConstraint=eastwest;whiteSpace=wrap;html=1;" parent="GEZRF7LmWpL6LQjUL8pA-12" vertex="1">
          <mxGeometry y="156" width="160" height="26" as="geometry" />
        </mxCell>
        <mxCell id="GEZRF7LmWpL6LQjUL8pA-19" value="+ createdAt: Date" style="text;strokeColor=none;fillColor=none;align=left;verticalAlign=top;spacingLeft=4;spacingRight=4;overflow=hidden;rotatable=0;points=[[0,0.5],[1,0.5]];portConstraint=eastwest;whiteSpace=wrap;html=1;" parent="GEZRF7LmWpL6LQjUL8pA-12" vertex="1">
          <mxGeometry y="182" width="160" height="26" as="geometry" />
        </mxCell>
        <mxCell id="yAE9XLFauvHRIwuhdHwT-22" value="+ updatedAt: Date" style="text;strokeColor=none;fillColor=none;align=left;verticalAlign=top;spacingLeft=4;spacingRight=4;overflow=hidden;rotatable=0;points=[[0,0.5],[1,0.5]];portConstraint=eastwest;whiteSpace=wrap;html=1;" vertex="1" parent="GEZRF7LmWpL6LQjUL8pA-12">
          <mxGeometry y="208" width="160" height="26" as="geometry" />
        </mxCell>
        <mxCell id="GEZRF7LmWpL6LQjUL8pA-20" value="" style="line;strokeWidth=1;fillColor=none;align=left;verticalAlign=middle;spacingTop=-1;spacingLeft=3;spacingRight=3;rotatable=0;labelPosition=right;points=[];portConstraint=eastwest;strokeColor=inherit;" parent="GEZRF7LmWpL6LQjUL8pA-12" vertex="1">
          <mxGeometry y="234" width="160" height="8" as="geometry" />
        </mxCell>
        <mxCell id="GEZRF7LmWpL6LQjUL8pA-21" style="edgeStyle=orthogonalEdgeStyle;rounded=0;orthogonalLoop=1;jettySize=auto;html=1;entryX=0.5;entryY=1;entryDx=0;entryDy=0;endArrow=none;endFill=0;" parent="1" source="GEZRF7LmWpL6LQjUL8pA-24" target="GEZRF7LmWpL6LQjUL8pA-4" edge="1">
          <mxGeometry relative="1" as="geometry">
            <Array as="points">
              <mxPoint x="-2490" y="720" />
              <mxPoint x="-2560" y="720" />
            </Array>
          </mxGeometry>
        </mxCell>
        <mxCell id="GEZRF7LmWpL6LQjUL8pA-22" value="0.n" style="edgeLabel;html=1;align=center;verticalAlign=middle;resizable=0;points=[];" parent="GEZRF7LmWpL6LQjUL8pA-21" vertex="1" connectable="0">
          <mxGeometry x="-0.8166" y="-1" relative="1" as="geometry">
            <mxPoint as="offset" />
          </mxGeometry>
        </mxCell>
        <mxCell id="GEZRF7LmWpL6LQjUL8pA-23" value="1.1" style="edgeLabel;html=1;align=center;verticalAlign=middle;resizable=0;points=[];" parent="GEZRF7LmWpL6LQjUL8pA-21" vertex="1" connectable="0">
          <mxGeometry x="0.7409" y="1" relative="1" as="geometry">
            <mxPoint as="offset" />
          </mxGeometry>
        </mxCell>
        <mxCell id="GEZRF7LmWpL6LQjUL8pA-24" value="App" style="swimlane;fontStyle=1;align=center;verticalAlign=top;childLayout=stackLayout;horizontal=1;startSize=26;horizontalStack=0;resizeParent=1;resizeParentMax=0;resizeLast=0;collapsible=1;marginBottom=0;whiteSpace=wrap;html=1;" parent="1" vertex="1">
          <mxGeometry x="-2520" y="800" width="160" height="190" as="geometry" />
        </mxCell>
        <mxCell id="GEZRF7LmWpL6LQjUL8pA-25" value="+ id: number" style="text;strokeColor=none;fillColor=none;align=left;verticalAlign=top;spacingLeft=4;spacingRight=4;overflow=hidden;rotatable=0;points=[[0,0.5],[1,0.5]];portConstraint=eastwest;whiteSpace=wrap;html=1;" parent="GEZRF7LmWpL6LQjUL8pA-24" vertex="1">
          <mxGeometry y="26" width="160" height="26" as="geometry" />
        </mxCell>
        <mxCell id="GEZRF7LmWpL6LQjUL8pA-26" value="+ name: string" style="text;strokeColor=none;fillColor=none;align=left;verticalAlign=top;spacingLeft=4;spacingRight=4;overflow=hidden;rotatable=0;points=[[0,0.5],[1,0.5]];portConstraint=eastwest;whiteSpace=wrap;html=1;" parent="GEZRF7LmWpL6LQjUL8pA-24" vertex="1">
          <mxGeometry y="52" width="160" height="26" as="geometry" />
        </mxCell>
        <mxCell id="yAE9XLFauvHRIwuhdHwT-2" value="+ description?: string" style="text;strokeColor=none;fillColor=none;align=left;verticalAlign=top;spacingLeft=4;spacingRight=4;overflow=hidden;rotatable=0;points=[[0,0.5],[1,0.5]];portConstraint=eastwest;whiteSpace=wrap;html=1;" vertex="1" parent="GEZRF7LmWpL6LQjUL8pA-24">
          <mxGeometry y="78" width="160" height="26" as="geometry" />
        </mxCell>
        <mxCell id="GEZRF7LmWpL6LQjUL8pA-27" value="+ workSpace: WorkSpace" style="text;strokeColor=none;fillColor=none;align=left;verticalAlign=top;spacingLeft=4;spacingRight=4;overflow=hidden;rotatable=0;points=[[0,0.5],[1,0.5]];portConstraint=eastwest;whiteSpace=wrap;html=1;" parent="GEZRF7LmWpL6LQjUL8pA-24" vertex="1">
          <mxGeometry y="104" width="160" height="26" as="geometry" />
        </mxCell>
        <mxCell id="GEZRF7LmWpL6LQjUL8pA-28" value="+ createdAt: Date" style="text;strokeColor=none;fillColor=none;align=left;verticalAlign=top;spacingLeft=4;spacingRight=4;overflow=hidden;rotatable=0;points=[[0,0.5],[1,0.5]];portConstraint=eastwest;whiteSpace=wrap;html=1;" parent="GEZRF7LmWpL6LQjUL8pA-24" vertex="1">
          <mxGeometry y="130" width="160" height="26" as="geometry" />
        </mxCell>
        <mxCell id="GEZRF7LmWpL6LQjUL8pA-29" value="+ updatedAt: Date" style="text;strokeColor=none;fillColor=none;align=left;verticalAlign=top;spacingLeft=4;spacingRight=4;overflow=hidden;rotatable=0;points=[[0,0.5],[1,0.5]];portConstraint=eastwest;whiteSpace=wrap;html=1;" parent="GEZRF7LmWpL6LQjUL8pA-24" vertex="1">
          <mxGeometry y="156" width="160" height="26" as="geometry" />
        </mxCell>
        <mxCell id="GEZRF7LmWpL6LQjUL8pA-30" value="" style="line;strokeWidth=1;fillColor=none;align=left;verticalAlign=middle;spacingTop=-1;spacingLeft=3;spacingRight=3;rotatable=0;labelPosition=right;points=[];portConstraint=eastwest;strokeColor=inherit;" parent="GEZRF7LmWpL6LQjUL8pA-24" vertex="1">
          <mxGeometry y="182" width="160" height="8" as="geometry" />
        </mxCell>
        <mxCell id="GEZRF7LmWpL6LQjUL8pA-31" value="File" style="swimlane;fontStyle=1;align=center;verticalAlign=top;childLayout=stackLayout;horizontal=1;startSize=26;horizontalStack=0;resizeParent=1;resizeParentMax=0;resizeLast=0;collapsible=1;marginBottom=0;whiteSpace=wrap;html=1;" parent="1" vertex="1">
          <mxGeometry x="-1900" y="460" width="160" height="216" as="geometry" />
        </mxCell>
        <mxCell id="GEZRF7LmWpL6LQjUL8pA-32" value="+ id: number" style="text;strokeColor=none;fillColor=none;align=left;verticalAlign=top;spacingLeft=4;spacingRight=4;overflow=hidden;rotatable=0;points=[[0,0.5],[1,0.5]];portConstraint=eastwest;whiteSpace=wrap;html=1;" parent="GEZRF7LmWpL6LQjUL8pA-31" vertex="1">
          <mxGeometry y="26" width="160" height="26" as="geometry" />
        </mxCell>
        <mxCell id="GEZRF7LmWpL6LQjUL8pA-33" value="+ resource: Resource" style="text;strokeColor=none;fillColor=none;align=left;verticalAlign=top;spacingLeft=4;spacingRight=4;overflow=hidden;rotatable=0;points=[[0,0.5],[1,0.5]];portConstraint=eastwest;whiteSpace=wrap;html=1;" parent="GEZRF7LmWpL6LQjUL8pA-31" vertex="1">
          <mxGeometry y="52" width="160" height="26" as="geometry" />
        </mxCell>
        <mxCell id="GEZRF7LmWpL6LQjUL8pA-34" value="+ path: string" style="text;strokeColor=none;fillColor=none;align=left;verticalAlign=top;spacingLeft=4;spacingRight=4;overflow=hidden;rotatable=0;points=[[0,0.5],[1,0.5]];portConstraint=eastwest;whiteSpace=wrap;html=1;" parent="GEZRF7LmWpL6LQjUL8pA-31" vertex="1">
          <mxGeometry y="78" width="160" height="26" as="geometry" />
        </mxCell>
        <mxCell id="GEZRF7LmWpL6LQjUL8pA-35" value="+ extension: string" style="text;strokeColor=none;fillColor=none;align=left;verticalAlign=top;spacingLeft=4;spacingRight=4;overflow=hidden;rotatable=0;points=[[0,0.5],[1,0.5]];portConstraint=eastwest;whiteSpace=wrap;html=1;" parent="GEZRF7LmWpL6LQjUL8pA-31" vertex="1">
          <mxGeometry y="104" width="160" height="26" as="geometry" />
        </mxCell>
        <mxCell id="GEZRF7LmWpL6LQjUL8pA-36" value="+ size: number (in bytes)" style="text;strokeColor=none;fillColor=none;align=left;verticalAlign=top;spacingLeft=4;spacingRight=4;overflow=hidden;rotatable=0;points=[[0,0.5],[1,0.5]];portConstraint=eastwest;whiteSpace=wrap;html=1;" parent="GEZRF7LmWpL6LQjUL8pA-31" vertex="1">
          <mxGeometry y="130" width="160" height="26" as="geometry" />
        </mxCell>
        <mxCell id="GEZRF7LmWpL6LQjUL8pA-37" value="+ createdAt: Date" style="text;strokeColor=none;fillColor=none;align=left;verticalAlign=top;spacingLeft=4;spacingRight=4;overflow=hidden;rotatable=0;points=[[0,0.5],[1,0.5]];portConstraint=eastwest;whiteSpace=wrap;html=1;" parent="GEZRF7LmWpL6LQjUL8pA-31" vertex="1">
          <mxGeometry y="156" width="160" height="26" as="geometry" />
        </mxCell>
        <mxCell id="GEZRF7LmWpL6LQjUL8pA-38" value="+ updatedAt: Date" style="text;strokeColor=none;fillColor=none;align=left;verticalAlign=top;spacingLeft=4;spacingRight=4;overflow=hidden;rotatable=0;points=[[0,0.5],[1,0.5]];portConstraint=eastwest;whiteSpace=wrap;html=1;" parent="GEZRF7LmWpL6LQjUL8pA-31" vertex="1">
          <mxGeometry y="182" width="160" height="26" as="geometry" />
        </mxCell>
        <mxCell id="GEZRF7LmWpL6LQjUL8pA-39" value="" style="line;strokeWidth=1;fillColor=none;align=left;verticalAlign=middle;spacingTop=-1;spacingLeft=3;spacingRight=3;rotatable=0;labelPosition=right;points=[];portConstraint=eastwest;strokeColor=inherit;" parent="GEZRF7LmWpL6LQjUL8pA-31" vertex="1">
          <mxGeometry y="208" width="160" height="8" as="geometry" />
        </mxCell>
        <mxCell id="GEZRF7LmWpL6LQjUL8pA-40" value="Link" style="swimlane;fontStyle=1;align=center;verticalAlign=top;childLayout=stackLayout;horizontal=1;startSize=26;horizontalStack=0;resizeParent=1;resizeParentMax=0;resizeLast=0;collapsible=1;marginBottom=0;whiteSpace=wrap;html=1;" parent="1" vertex="1">
          <mxGeometry x="-2060" y="264" width="160" height="138" as="geometry" />
        </mxCell>
        <mxCell id="GEZRF7LmWpL6LQjUL8pA-41" value="+ id: number" style="text;strokeColor=none;fillColor=none;align=left;verticalAlign=top;spacingLeft=4;spacingRight=4;overflow=hidden;rotatable=0;points=[[0,0.5],[1,0.5]];portConstraint=eastwest;whiteSpace=wrap;html=1;" parent="GEZRF7LmWpL6LQjUL8pA-40" vertex="1">
          <mxGeometry y="26" width="160" height="26" as="geometry" />
        </mxCell>
        <mxCell id="GEZRF7LmWpL6LQjUL8pA-42" value="+ content: number" style="text;strokeColor=none;fillColor=none;align=left;verticalAlign=top;spacingLeft=4;spacingRight=4;overflow=hidden;rotatable=0;points=[[0,0.5],[1,0.5]];portConstraint=eastwest;whiteSpace=wrap;html=1;" parent="GEZRF7LmWpL6LQjUL8pA-40" vertex="1">
          <mxGeometry y="52" width="160" height="26" as="geometry" />
        </mxCell>
        <mxCell id="GEZRF7LmWpL6LQjUL8pA-43" value="+ createdAt: Date" style="text;strokeColor=none;fillColor=none;align=left;verticalAlign=top;spacingLeft=4;spacingRight=4;overflow=hidden;rotatable=0;points=[[0,0.5],[1,0.5]];portConstraint=eastwest;whiteSpace=wrap;html=1;" parent="GEZRF7LmWpL6LQjUL8pA-40" vertex="1">
          <mxGeometry y="78" width="160" height="26" as="geometry" />
        </mxCell>
        <mxCell id="GEZRF7LmWpL6LQjUL8pA-44" value="+ updatedAt: Date" style="text;strokeColor=none;fillColor=none;align=left;verticalAlign=top;spacingLeft=4;spacingRight=4;overflow=hidden;rotatable=0;points=[[0,0.5],[1,0.5]];portConstraint=eastwest;whiteSpace=wrap;html=1;" parent="GEZRF7LmWpL6LQjUL8pA-40" vertex="1">
          <mxGeometry y="104" width="160" height="26" as="geometry" />
        </mxCell>
        <mxCell id="GEZRF7LmWpL6LQjUL8pA-45" value="" style="line;strokeWidth=1;fillColor=none;align=left;verticalAlign=middle;spacingTop=-1;spacingLeft=3;spacingRight=3;rotatable=0;labelPosition=right;points=[];portConstraint=eastwest;strokeColor=inherit;" parent="GEZRF7LmWpL6LQjUL8pA-40" vertex="1">
          <mxGeometry y="130" width="160" height="8" as="geometry" />
        </mxCell>
        <mxCell id="GEZRF7LmWpL6LQjUL8pA-46" style="edgeStyle=orthogonalEdgeStyle;rounded=0;orthogonalLoop=1;jettySize=auto;html=1;entryX=1;entryY=0.5;entryDx=0;entryDy=0;endArrow=none;endFill=0;" parent="1" source="GEZRF7LmWpL6LQjUL8pA-49" target="GEZRF7LmWpL6LQjUL8pA-83" edge="1">
          <mxGeometry relative="1" as="geometry">
            <Array as="points">
              <mxPoint x="-2200" y="872" />
              <mxPoint x="-2200" y="503" />
              <mxPoint x="-2280" y="503" />
            </Array>
          </mxGeometry>
        </mxCell>
        <mxCell id="GEZRF7LmWpL6LQjUL8pA-47" value="1.1" style="edgeLabel;html=1;align=center;verticalAlign=middle;resizable=0;points=[];" parent="GEZRF7LmWpL6LQjUL8pA-46" vertex="1" connectable="0">
          <mxGeometry x="-0.8489" y="-1" relative="1" as="geometry">
            <mxPoint x="19" as="offset" />
          </mxGeometry>
        </mxCell>
        <mxCell id="GEZRF7LmWpL6LQjUL8pA-48" value="1.1" style="edgeLabel;html=1;align=center;verticalAlign=middle;resizable=0;points=[];" parent="GEZRF7LmWpL6LQjUL8pA-46" vertex="1" connectable="0">
          <mxGeometry x="0.9154" y="2" relative="1" as="geometry">
            <mxPoint as="offset" />
          </mxGeometry>
        </mxCell>
        <mxCell id="GEZRF7LmWpL6LQjUL8pA-49" value="Text" style="swimlane;fontStyle=1;align=center;verticalAlign=top;childLayout=stackLayout;horizontal=1;startSize=26;horizontalStack=0;resizeParent=1;resizeParentMax=0;resizeLast=0;collapsible=1;marginBottom=0;whiteSpace=wrap;html=1;" parent="1" vertex="1">
          <mxGeometry x="-2120" y="790" width="160" height="164" as="geometry" />
        </mxCell>
        <mxCell id="GEZRF7LmWpL6LQjUL8pA-50" value="+ id: string" style="text;strokeColor=none;fillColor=none;align=left;verticalAlign=top;spacingLeft=4;spacingRight=4;overflow=hidden;rotatable=0;points=[[0,0.5],[1,0.5]];portConstraint=eastwest;whiteSpace=wrap;html=1;" parent="GEZRF7LmWpL6LQjUL8pA-49" vertex="1">
          <mxGeometry y="26" width="160" height="26" as="geometry" />
        </mxCell>
        <mxCell id="GEZRF7LmWpL6LQjUL8pA-51" value="+ content: string" style="text;strokeColor=none;fillColor=none;align=left;verticalAlign=top;spacingLeft=4;spacingRight=4;overflow=hidden;rotatable=0;points=[[0,0.5],[1,0.5]];portConstraint=eastwest;whiteSpace=wrap;html=1;" parent="GEZRF7LmWpL6LQjUL8pA-49" vertex="1">
          <mxGeometry y="52" width="160" height="26" as="geometry" />
        </mxCell>
        <mxCell id="GEZRF7LmWpL6LQjUL8pA-52" value="+ createdAt: Date" style="text;strokeColor=none;fillColor=none;align=left;verticalAlign=top;spacingLeft=4;spacingRight=4;overflow=hidden;rotatable=0;points=[[0,0.5],[1,0.5]];portConstraint=eastwest;whiteSpace=wrap;html=1;" parent="GEZRF7LmWpL6LQjUL8pA-49" vertex="1">
          <mxGeometry y="78" width="160" height="26" as="geometry" />
        </mxCell>
        <mxCell id="GEZRF7LmWpL6LQjUL8pA-53" value="+ updatedAt: Date" style="text;strokeColor=none;fillColor=none;align=left;verticalAlign=top;spacingLeft=4;spacingRight=4;overflow=hidden;rotatable=0;points=[[0,0.5],[1,0.5]];portConstraint=eastwest;whiteSpace=wrap;html=1;" parent="GEZRF7LmWpL6LQjUL8pA-49" vertex="1">
          <mxGeometry y="104" width="160" height="26" as="geometry" />
        </mxCell>
        <mxCell id="GEZRF7LmWpL6LQjUL8pA-54" value="+ resource: Resource" style="text;strokeColor=none;fillColor=none;align=left;verticalAlign=top;spacingLeft=4;spacingRight=4;overflow=hidden;rotatable=0;points=[[0,0.5],[1,0.5]];portConstraint=eastwest;whiteSpace=wrap;html=1;" parent="GEZRF7LmWpL6LQjUL8pA-49" vertex="1">
          <mxGeometry y="130" width="160" height="26" as="geometry" />
        </mxCell>
        <mxCell id="GEZRF7LmWpL6LQjUL8pA-55" value="" style="line;strokeWidth=1;fillColor=none;align=left;verticalAlign=middle;spacingTop=-1;spacingLeft=3;spacingRight=3;rotatable=0;labelPosition=right;points=[];portConstraint=eastwest;strokeColor=inherit;" parent="GEZRF7LmWpL6LQjUL8pA-49" vertex="1">
          <mxGeometry y="156" width="160" height="8" as="geometry" />
        </mxCell>
        <mxCell id="GEZRF7LmWpL6LQjUL8pA-56" style="edgeStyle=orthogonalEdgeStyle;rounded=0;orthogonalLoop=1;jettySize=auto;html=1;entryX=1;entryY=0.5;entryDx=0;entryDy=0;endArrow=none;endFill=0;" parent="1" source="GEZRF7LmWpL6LQjUL8pA-59" target="GEZRF7LmWpL6LQjUL8pA-83" edge="1">
          <mxGeometry relative="1" as="geometry">
            <Array as="points">
              <mxPoint x="-2210" y="619" />
              <mxPoint x="-2210" y="590" />
              <mxPoint x="-2280" y="590" />
            </Array>
          </mxGeometry>
        </mxCell>
        <mxCell id="GEZRF7LmWpL6LQjUL8pA-57" value="1.1" style="edgeLabel;html=1;align=center;verticalAlign=middle;resizable=0;points=[];" parent="GEZRF7LmWpL6LQjUL8pA-56" vertex="1" connectable="0">
          <mxGeometry x="-0.7842" relative="1" as="geometry">
            <mxPoint as="offset" />
          </mxGeometry>
        </mxCell>
        <mxCell id="GEZRF7LmWpL6LQjUL8pA-58" value="1.1" style="edgeLabel;html=1;align=center;verticalAlign=middle;resizable=0;points=[];" parent="GEZRF7LmWpL6LQjUL8pA-56" vertex="1" connectable="0">
          <mxGeometry x="0.3786" relative="1" as="geometry">
            <mxPoint as="offset" />
          </mxGeometry>
        </mxCell>
        <mxCell id="GEZRF7LmWpL6LQjUL8pA-59" value="Code" style="swimlane;fontStyle=1;align=center;verticalAlign=top;childLayout=stackLayout;horizontal=1;startSize=26;horizontalStack=0;resizeParent=1;resizeParentMax=0;resizeLast=0;collapsible=1;marginBottom=0;whiteSpace=wrap;html=1;" parent="1" vertex="1">
          <mxGeometry x="-2120" y="570" width="160" height="190" as="geometry" />
        </mxCell>
        <mxCell id="GEZRF7LmWpL6LQjUL8pA-60" value="+ id: number" style="text;strokeColor=none;fillColor=none;align=left;verticalAlign=top;spacingLeft=4;spacingRight=4;overflow=hidden;rotatable=0;points=[[0,0.5],[1,0.5]];portConstraint=eastwest;whiteSpace=wrap;html=1;" parent="GEZRF7LmWpL6LQjUL8pA-59" vertex="1">
          <mxGeometry y="26" width="160" height="26" as="geometry" />
        </mxCell>
        <mxCell id="GEZRF7LmWpL6LQjUL8pA-61" value="+ resource: Resource" style="text;strokeColor=none;fillColor=none;align=left;verticalAlign=top;spacingLeft=4;spacingRight=4;overflow=hidden;rotatable=0;points=[[0,0.5],[1,0.5]];portConstraint=eastwest;whiteSpace=wrap;html=1;" parent="GEZRF7LmWpL6LQjUL8pA-59" vertex="1">
          <mxGeometry y="52" width="160" height="26" as="geometry" />
        </mxCell>
        <mxCell id="GEZRF7LmWpL6LQjUL8pA-62" value="+ content: string" style="text;strokeColor=none;fillColor=none;align=left;verticalAlign=top;spacingLeft=4;spacingRight=4;overflow=hidden;rotatable=0;points=[[0,0.5],[1,0.5]];portConstraint=eastwest;whiteSpace=wrap;html=1;" parent="GEZRF7LmWpL6LQjUL8pA-59" vertex="1">
          <mxGeometry y="78" width="160" height="26" as="geometry" />
        </mxCell>
        <mxCell id="GEZRF7LmWpL6LQjUL8pA-63" value="+ language: string" style="text;strokeColor=none;fillColor=none;align=left;verticalAlign=top;spacingLeft=4;spacingRight=4;overflow=hidden;rotatable=0;points=[[0,0.5],[1,0.5]];portConstraint=eastwest;whiteSpace=wrap;html=1;" parent="GEZRF7LmWpL6LQjUL8pA-59" vertex="1">
          <mxGeometry y="104" width="160" height="26" as="geometry" />
        </mxCell>
        <mxCell id="GEZRF7LmWpL6LQjUL8pA-64" value="+ createdAt: Date" style="text;strokeColor=none;fillColor=none;align=left;verticalAlign=top;spacingLeft=4;spacingRight=4;overflow=hidden;rotatable=0;points=[[0,0.5],[1,0.5]];portConstraint=eastwest;whiteSpace=wrap;html=1;" parent="GEZRF7LmWpL6LQjUL8pA-59" vertex="1">
          <mxGeometry y="130" width="160" height="26" as="geometry" />
        </mxCell>
        <mxCell id="GEZRF7LmWpL6LQjUL8pA-65" value="+ updatedAt: Date" style="text;strokeColor=none;fillColor=none;align=left;verticalAlign=top;spacingLeft=4;spacingRight=4;overflow=hidden;rotatable=0;points=[[0,0.5],[1,0.5]];portConstraint=eastwest;whiteSpace=wrap;html=1;" parent="GEZRF7LmWpL6LQjUL8pA-59" vertex="1">
          <mxGeometry y="156" width="160" height="26" as="geometry" />
        </mxCell>
        <mxCell id="GEZRF7LmWpL6LQjUL8pA-66" value="" style="line;strokeWidth=1;fillColor=none;align=left;verticalAlign=middle;spacingTop=-1;spacingLeft=3;spacingRight=3;rotatable=0;labelPosition=right;points=[];portConstraint=eastwest;strokeColor=inherit;" parent="GEZRF7LmWpL6LQjUL8pA-59" vertex="1">
          <mxGeometry y="182" width="160" height="8" as="geometry" />
        </mxCell>
        <mxCell id="GEZRF7LmWpL6LQjUL8pA-67" value="Role" style="swimlane;fontStyle=1;align=center;verticalAlign=top;childLayout=stackLayout;horizontal=1;startSize=26;horizontalStack=0;resizeParent=1;resizeParentMax=0;resizeLast=0;collapsible=1;marginBottom=0;whiteSpace=wrap;html=1;" parent="1" vertex="1">
          <mxGeometry x="-3320" y="440" width="160" height="138" as="geometry" />
        </mxCell>
        <mxCell id="GEZRF7LmWpL6LQjUL8pA-68" value="+ id: number" style="text;strokeColor=none;fillColor=none;align=left;verticalAlign=top;spacingLeft=4;spacingRight=4;overflow=hidden;rotatable=0;points=[[0,0.5],[1,0.5]];portConstraint=eastwest;whiteSpace=wrap;html=1;" parent="GEZRF7LmWpL6LQjUL8pA-67" vertex="1">
          <mxGeometry y="26" width="160" height="26" as="geometry" />
        </mxCell>
        <mxCell id="GEZRF7LmWpL6LQjUL8pA-69" value="+ name: string" style="text;strokeColor=none;fillColor=none;align=left;verticalAlign=top;spacingLeft=4;spacingRight=4;overflow=hidden;rotatable=0;points=[[0,0.5],[1,0.5]];portConstraint=eastwest;whiteSpace=wrap;html=1;" parent="GEZRF7LmWpL6LQjUL8pA-67" vertex="1">
          <mxGeometry y="52" width="160" height="26" as="geometry" />
        </mxCell>
        <mxCell id="GEZRF7LmWpL6LQjUL8pA-70" value="+ createdAt: Date" style="text;strokeColor=none;fillColor=none;align=left;verticalAlign=top;spacingLeft=4;spacingRight=4;overflow=hidden;rotatable=0;points=[[0,0.5],[1,0.5]];portConstraint=eastwest;whiteSpace=wrap;html=1;" parent="GEZRF7LmWpL6LQjUL8pA-67" vertex="1">
          <mxGeometry y="78" width="160" height="26" as="geometry" />
        </mxCell>
        <mxCell id="GEZRF7LmWpL6LQjUL8pA-71" value="+ updatedAt: Date" style="text;strokeColor=none;fillColor=none;align=left;verticalAlign=top;spacingLeft=4;spacingRight=4;overflow=hidden;rotatable=0;points=[[0,0.5],[1,0.5]];portConstraint=eastwest;whiteSpace=wrap;html=1;" parent="GEZRF7LmWpL6LQjUL8pA-67" vertex="1">
          <mxGeometry y="104" width="160" height="26" as="geometry" />
        </mxCell>
        <mxCell id="GEZRF7LmWpL6LQjUL8pA-72" value="" style="line;strokeWidth=1;fillColor=none;align=left;verticalAlign=middle;spacingTop=-1;spacingLeft=3;spacingRight=3;rotatable=0;labelPosition=right;points=[];portConstraint=eastwest;strokeColor=inherit;" parent="GEZRF7LmWpL6LQjUL8pA-67" vertex="1">
          <mxGeometry y="130" width="160" height="8" as="geometry" />
        </mxCell>
        <mxCell id="GEZRF7LmWpL6LQjUL8pA-73" value="Tag" style="swimlane;fontStyle=1;align=center;verticalAlign=top;childLayout=stackLayout;horizontal=1;startSize=26;horizontalStack=0;resizeParent=1;resizeParentMax=0;resizeLast=0;collapsible=1;marginBottom=0;whiteSpace=wrap;html=1;" parent="1" vertex="1">
          <mxGeometry x="-2550" y="60" width="160" height="138" as="geometry" />
        </mxCell>
        <mxCell id="GEZRF7LmWpL6LQjUL8pA-74" value="+ id: number" style="text;strokeColor=none;fillColor=none;align=left;verticalAlign=top;spacingLeft=4;spacingRight=4;overflow=hidden;rotatable=0;points=[[0,0.5],[1,0.5]];portConstraint=eastwest;whiteSpace=wrap;html=1;" parent="GEZRF7LmWpL6LQjUL8pA-73" vertex="1">
          <mxGeometry y="26" width="160" height="26" as="geometry" />
        </mxCell>
        <mxCell id="GEZRF7LmWpL6LQjUL8pA-75" value="+ name: string" style="text;strokeColor=none;fillColor=none;align=left;verticalAlign=top;spacingLeft=4;spacingRight=4;overflow=hidden;rotatable=0;points=[[0,0.5],[1,0.5]];portConstraint=eastwest;whiteSpace=wrap;html=1;" parent="GEZRF7LmWpL6LQjUL8pA-73" vertex="1">
          <mxGeometry y="52" width="160" height="26" as="geometry" />
        </mxCell>
        <mxCell id="GEZRF7LmWpL6LQjUL8pA-76" value="+ createdAt: Date" style="text;strokeColor=none;fillColor=none;align=left;verticalAlign=top;spacingLeft=4;spacingRight=4;overflow=hidden;rotatable=0;points=[[0,0.5],[1,0.5]];portConstraint=eastwest;whiteSpace=wrap;html=1;" parent="GEZRF7LmWpL6LQjUL8pA-73" vertex="1">
          <mxGeometry y="78" width="160" height="26" as="geometry" />
        </mxCell>
        <mxCell id="GEZRF7LmWpL6LQjUL8pA-77" value="+ updatedAt: Date" style="text;strokeColor=none;fillColor=none;align=left;verticalAlign=top;spacingLeft=4;spacingRight=4;overflow=hidden;rotatable=0;points=[[0,0.5],[1,0.5]];portConstraint=eastwest;whiteSpace=wrap;html=1;" parent="GEZRF7LmWpL6LQjUL8pA-73" vertex="1">
          <mxGeometry y="104" width="160" height="26" as="geometry" />
        </mxCell>
        <mxCell id="GEZRF7LmWpL6LQjUL8pA-78" value="" style="line;strokeWidth=1;fillColor=none;align=left;verticalAlign=middle;spacingTop=-1;spacingLeft=3;spacingRight=3;rotatable=0;labelPosition=right;points=[];portConstraint=eastwest;strokeColor=inherit;" parent="GEZRF7LmWpL6LQjUL8pA-73" vertex="1">
          <mxGeometry y="130" width="160" height="8" as="geometry" />
        </mxCell>
        <mxCell id="GEZRF7LmWpL6LQjUL8pA-79" style="edgeStyle=orthogonalEdgeStyle;rounded=0;orthogonalLoop=1;jettySize=auto;html=1;entryX=0.5;entryY=1;entryDx=0;entryDy=0;endArrow=none;endFill=0;" parent="1" source="GEZRF7LmWpL6LQjUL8pA-82" target="GEZRF7LmWpL6LQjUL8pA-91" edge="1">
          <mxGeometry relative="1" as="geometry" />
        </mxCell>
        <mxCell id="GEZRF7LmWpL6LQjUL8pA-80" value="1.1" style="edgeLabel;html=1;align=center;verticalAlign=middle;resizable=0;points=[];" parent="GEZRF7LmWpL6LQjUL8pA-79" vertex="1" connectable="0">
          <mxGeometry x="-0.7262" relative="1" as="geometry">
            <mxPoint as="offset" />
          </mxGeometry>
        </mxCell>
        <mxCell id="GEZRF7LmWpL6LQjUL8pA-81" value="0.n" style="edgeLabel;html=1;align=center;verticalAlign=middle;resizable=0;points=[];" parent="GEZRF7LmWpL6LQjUL8pA-79" vertex="1" connectable="0">
          <mxGeometry x="0.7661" relative="1" as="geometry">
            <mxPoint as="offset" />
          </mxGeometry>
        </mxCell>
        <mxCell id="GEZRF7LmWpL6LQjUL8pA-82" value="Resource" style="swimlane;fontStyle=1;align=center;verticalAlign=top;childLayout=stackLayout;horizontal=1;startSize=26;horizontalStack=0;resizeParent=1;resizeParentMax=0;resizeLast=0;collapsible=1;marginBottom=0;whiteSpace=wrap;html=1;" parent="1" vertex="1">
          <mxGeometry x="-2440" y="460" width="160" height="216" as="geometry" />
        </mxCell>
        <mxCell id="GEZRF7LmWpL6LQjUL8pA-83" value="+ id: number" style="text;strokeColor=none;fillColor=none;align=left;verticalAlign=top;spacingLeft=4;spacingRight=4;overflow=hidden;rotatable=0;points=[[0,0.5],[1,0.5]];portConstraint=eastwest;whiteSpace=wrap;html=1;" parent="GEZRF7LmWpL6LQjUL8pA-82" vertex="1">
          <mxGeometry y="26" width="160" height="26" as="geometry" />
        </mxCell>
        <mxCell id="GEZRF7LmWpL6LQjUL8pA-84" value="+ title : string" style="text;strokeColor=none;fillColor=none;align=left;verticalAlign=top;spacingLeft=4;spacingRight=4;overflow=hidden;rotatable=0;points=[[0,0.5],[1,0.5]];portConstraint=eastwest;whiteSpace=wrap;html=1;" parent="GEZRF7LmWpL6LQjUL8pA-82" vertex="1">
          <mxGeometry y="52" width="160" height="26" as="geometry" />
        </mxCell>
        <mxCell id="GEZRF7LmWpL6LQjUL8pA-85" value="+ description? : string" style="text;strokeColor=none;fillColor=none;align=left;verticalAlign=top;spacingLeft=4;spacingRight=4;overflow=hidden;rotatable=0;points=[[0,0.5],[1,0.5]];portConstraint=eastwest;whiteSpace=wrap;html=1;" parent="GEZRF7LmWpL6LQjUL8pA-82" vertex="1">
          <mxGeometry y="78" width="160" height="26" as="geometry" />
        </mxCell>
        <mxCell id="GEZRF7LmWpL6LQjUL8pA-86" value="+ workSpace : WorkSpace" style="text;strokeColor=none;fillColor=none;align=left;verticalAlign=top;spacingLeft=4;spacingRight=4;overflow=hidden;rotatable=0;points=[[0,0.5],[1,0.5]];portConstraint=eastwest;whiteSpace=wrap;html=1;" parent="GEZRF7LmWpL6LQjUL8pA-82" vertex="1">
          <mxGeometry y="104" width="160" height="26" as="geometry" />
        </mxCell>
        <mxCell id="GEZRF7LmWpL6LQjUL8pA-87" value="+ app? : App" style="text;strokeColor=none;fillColor=none;align=left;verticalAlign=top;spacingLeft=4;spacingRight=4;overflow=hidden;rotatable=0;points=[[0,0.5],[1,0.5]];portConstraint=eastwest;whiteSpace=wrap;html=1;" parent="GEZRF7LmWpL6LQjUL8pA-82" vertex="1">
          <mxGeometry y="130" width="160" height="26" as="geometry" />
        </mxCell>
        <mxCell id="GEZRF7LmWpL6LQjUL8pA-88" value="+ createdAt : Date" style="text;strokeColor=none;fillColor=none;align=left;verticalAlign=top;spacingLeft=4;spacingRight=4;overflow=hidden;rotatable=0;points=[[0,0.5],[1,0.5]];portConstraint=eastwest;whiteSpace=wrap;html=1;" parent="GEZRF7LmWpL6LQjUL8pA-82" vertex="1">
          <mxGeometry y="156" width="160" height="26" as="geometry" />
        </mxCell>
        <mxCell id="GEZRF7LmWpL6LQjUL8pA-89" value="+ updatedAt : Date" style="text;strokeColor=none;fillColor=none;align=left;verticalAlign=top;spacingLeft=4;spacingRight=4;overflow=hidden;rotatable=0;points=[[0,0.5],[1,0.5]];portConstraint=eastwest;whiteSpace=wrap;html=1;" parent="GEZRF7LmWpL6LQjUL8pA-82" vertex="1">
          <mxGeometry y="182" width="160" height="26" as="geometry" />
        </mxCell>
        <mxCell id="GEZRF7LmWpL6LQjUL8pA-90" value="" style="line;strokeWidth=1;fillColor=none;align=left;verticalAlign=middle;spacingTop=-1;spacingLeft=3;spacingRight=3;rotatable=0;labelPosition=right;points=[];portConstraint=eastwest;strokeColor=inherit;" parent="GEZRF7LmWpL6LQjUL8pA-82" vertex="1">
          <mxGeometry y="208" width="160" height="8" as="geometry" />
        </mxCell>
        <mxCell id="GEZRF7LmWpL6LQjUL8pA-91" value="ResourceTag" style="swimlane;fontStyle=1;align=center;verticalAlign=top;childLayout=stackLayout;horizontal=1;startSize=26;horizontalStack=0;resizeParent=1;resizeParentMax=0;resizeLast=0;collapsible=1;marginBottom=0;whiteSpace=wrap;html=1;" parent="1" vertex="1">
          <mxGeometry x="-2440" y="259" width="160" height="86" as="geometry" />
        </mxCell>
        <mxCell id="GEZRF7LmWpL6LQjUL8pA-92" value="+ resource : Resource" style="text;strokeColor=none;fillColor=none;align=left;verticalAlign=top;spacingLeft=4;spacingRight=4;overflow=hidden;rotatable=0;points=[[0,0.5],[1,0.5]];portConstraint=eastwest;whiteSpace=wrap;html=1;" parent="GEZRF7LmWpL6LQjUL8pA-91" vertex="1">
          <mxGeometry y="26" width="160" height="26" as="geometry" />
        </mxCell>
        <mxCell id="GEZRF7LmWpL6LQjUL8pA-93" value="+ tag : Tag" style="text;strokeColor=none;fillColor=none;align=left;verticalAlign=top;spacingLeft=4;spacingRight=4;overflow=hidden;rotatable=0;points=[[0,0.5],[1,0.5]];portConstraint=eastwest;whiteSpace=wrap;html=1;" parent="GEZRF7LmWpL6LQjUL8pA-91" vertex="1">
          <mxGeometry y="52" width="160" height="26" as="geometry" />
        </mxCell>
        <mxCell id="GEZRF7LmWpL6LQjUL8pA-94" value="" style="line;strokeWidth=1;fillColor=none;align=left;verticalAlign=middle;spacingTop=-1;spacingLeft=3;spacingRight=3;rotatable=0;labelPosition=right;points=[];portConstraint=eastwest;strokeColor=inherit;" parent="GEZRF7LmWpL6LQjUL8pA-91" vertex="1">
          <mxGeometry y="78" width="160" height="8" as="geometry" />
        </mxCell>
        <mxCell id="GEZRF7LmWpL6LQjUL8pA-95" style="edgeStyle=orthogonalEdgeStyle;rounded=0;orthogonalLoop=1;jettySize=auto;html=1;entryX=0.5;entryY=1;entryDx=0;entryDy=0;endArrow=none;endFill=0;exitX=0.5;exitY=0;exitDx=0;exitDy=0;" parent="1" source="GEZRF7LmWpL6LQjUL8pA-91" target="GEZRF7LmWpL6LQjUL8pA-73" edge="1">
          <mxGeometry relative="1" as="geometry">
            <Array as="points">
              <mxPoint x="-2360" y="229" />
              <mxPoint x="-2420" y="229" />
              <mxPoint x="-2420" y="198" />
            </Array>
          </mxGeometry>
        </mxCell>
        <mxCell id="GEZRF7LmWpL6LQjUL8pA-96" value="0.n" style="edgeLabel;html=1;align=center;verticalAlign=middle;resizable=0;points=[];" parent="GEZRF7LmWpL6LQjUL8pA-95" vertex="1" connectable="0">
          <mxGeometry x="-0.8464" y="-1" relative="1" as="geometry">
            <mxPoint as="offset" />
          </mxGeometry>
        </mxCell>
        <mxCell id="GEZRF7LmWpL6LQjUL8pA-97" value="1.1" style="edgeLabel;html=1;align=center;verticalAlign=middle;resizable=0;points=[];" parent="GEZRF7LmWpL6LQjUL8pA-95" vertex="1" connectable="0">
          <mxGeometry x="0.2703" y="-1" relative="1" as="geometry">
            <mxPoint as="offset" />
          </mxGeometry>
        </mxCell>
        <mxCell id="GEZRF7LmWpL6LQjUL8pA-98" style="edgeStyle=orthogonalEdgeStyle;rounded=0;orthogonalLoop=1;jettySize=auto;html=1;entryX=1;entryY=0.5;entryDx=0;entryDy=0;endArrow=none;endFill=0;exitX=-0.001;exitY=0.106;exitDx=0;exitDy=0;exitPerimeter=0;" parent="1" source="GEZRF7LmWpL6LQjUL8pA-31" target="GEZRF7LmWpL6LQjUL8pA-83" edge="1">
          <mxGeometry relative="1" as="geometry">
            <mxPoint x="-1890" y="470" as="sourcePoint" />
            <Array as="points">
              <mxPoint x="-1900" y="480" />
              <mxPoint x="-2280" y="480" />
            </Array>
          </mxGeometry>
        </mxCell>
        <mxCell id="GEZRF7LmWpL6LQjUL8pA-99" value="1.1" style="edgeLabel;html=1;align=center;verticalAlign=middle;resizable=0;points=[];" parent="GEZRF7LmWpL6LQjUL8pA-98" vertex="1" connectable="0">
          <mxGeometry x="-0.5305" y="-1" relative="1" as="geometry">
            <mxPoint x="26" y="1" as="offset" />
          </mxGeometry>
        </mxCell>
        <mxCell id="GEZRF7LmWpL6LQjUL8pA-100" value="1.1" style="edgeLabel;html=1;align=center;verticalAlign=middle;resizable=0;points=[];" parent="GEZRF7LmWpL6LQjUL8pA-98" vertex="1" connectable="0">
          <mxGeometry x="0.759" relative="1" as="geometry">
            <mxPoint as="offset" />
          </mxGeometry>
        </mxCell>
        <mxCell id="GEZRF7LmWpL6LQjUL8pA-101" style="edgeStyle=orthogonalEdgeStyle;rounded=0;orthogonalLoop=1;jettySize=auto;html=1;endArrow=none;endFill=0;exitX=0;exitY=0.5;exitDx=0;exitDy=0;entryX=0.75;entryY=0;entryDx=0;entryDy=0;" parent="1" source="GEZRF7LmWpL6LQjUL8pA-41" target="GEZRF7LmWpL6LQjUL8pA-82" edge="1">
          <mxGeometry relative="1" as="geometry">
            <Array as="points">
              <mxPoint x="-2200" y="303" />
              <mxPoint x="-2200" y="420" />
              <mxPoint x="-2320" y="420" />
            </Array>
          </mxGeometry>
        </mxCell>
        <mxCell id="GEZRF7LmWpL6LQjUL8pA-102" value="1.1" style="edgeLabel;html=1;align=center;verticalAlign=middle;resizable=0;points=[];" parent="GEZRF7LmWpL6LQjUL8pA-101" vertex="1" connectable="0">
          <mxGeometry x="-0.7037" y="2" relative="1" as="geometry">
            <mxPoint as="offset" />
          </mxGeometry>
        </mxCell>
        <mxCell id="GEZRF7LmWpL6LQjUL8pA-103" value="1.1" style="edgeLabel;html=1;align=center;verticalAlign=middle;resizable=0;points=[];" parent="GEZRF7LmWpL6LQjUL8pA-101" vertex="1" connectable="0">
          <mxGeometry x="0.8587" relative="1" as="geometry">
            <mxPoint as="offset" />
          </mxGeometry>
        </mxCell>
        <mxCell id="GEZRF7LmWpL6LQjUL8pA-104" style="edgeStyle=orthogonalEdgeStyle;rounded=0;orthogonalLoop=1;jettySize=auto;html=1;entryX=0.5;entryY=1;entryDx=0;entryDy=0;endArrow=none;endFill=0;" parent="1" source="GEZRF7LmWpL6LQjUL8pA-107" target="GEZRF7LmWpL6LQjUL8pA-73" edge="1">
          <mxGeometry relative="1" as="geometry">
            <Array as="points">
              <mxPoint x="-2560" y="229" />
              <mxPoint x="-2510" y="229" />
              <mxPoint x="-2510" y="198" />
            </Array>
          </mxGeometry>
        </mxCell>
        <mxCell id="GEZRF7LmWpL6LQjUL8pA-105" value="1.1" style="edgeLabel;html=1;align=center;verticalAlign=middle;resizable=0;points=[];" parent="GEZRF7LmWpL6LQjUL8pA-104" vertex="1" connectable="0">
          <mxGeometry x="0.2677" y="1" relative="1" as="geometry">
            <mxPoint as="offset" />
          </mxGeometry>
        </mxCell>
        <mxCell id="GEZRF7LmWpL6LQjUL8pA-106" value="0.n" style="edgeLabel;html=1;align=center;verticalAlign=middle;resizable=0;points=[];" parent="GEZRF7LmWpL6LQjUL8pA-104" vertex="1" connectable="0">
          <mxGeometry x="-0.8475" y="-1" relative="1" as="geometry">
            <mxPoint as="offset" />
          </mxGeometry>
        </mxCell>
        <mxCell id="GEZRF7LmWpL6LQjUL8pA-107" value="ProjectTag" style="swimlane;fontStyle=1;align=center;verticalAlign=top;childLayout=stackLayout;horizontal=1;startSize=26;horizontalStack=0;resizeParent=1;resizeParentMax=0;resizeLast=0;collapsible=1;marginBottom=0;whiteSpace=wrap;html=1;" parent="1" vertex="1">
          <mxGeometry x="-2640" y="259" width="160" height="86" as="geometry" />
        </mxCell>
        <mxCell id="GEZRF7LmWpL6LQjUL8pA-108" value="+ workSpace : WorkSpace" style="text;strokeColor=none;fillColor=none;align=left;verticalAlign=top;spacingLeft=4;spacingRight=4;overflow=hidden;rotatable=0;points=[[0,0.5],[1,0.5]];portConstraint=eastwest;whiteSpace=wrap;html=1;" parent="GEZRF7LmWpL6LQjUL8pA-107" vertex="1">
          <mxGeometry y="26" width="160" height="26" as="geometry" />
        </mxCell>
        <mxCell id="GEZRF7LmWpL6LQjUL8pA-109" value="+ tag : Tag" style="text;strokeColor=none;fillColor=none;align=left;verticalAlign=top;spacingLeft=4;spacingRight=4;overflow=hidden;rotatable=0;points=[[0,0.5],[1,0.5]];portConstraint=eastwest;whiteSpace=wrap;html=1;" parent="GEZRF7LmWpL6LQjUL8pA-107" vertex="1">
          <mxGeometry y="52" width="160" height="26" as="geometry" />
        </mxCell>
        <mxCell id="GEZRF7LmWpL6LQjUL8pA-110" value="" style="line;strokeWidth=1;fillColor=none;align=left;verticalAlign=middle;spacingTop=-1;spacingLeft=3;spacingRight=3;rotatable=0;labelPosition=right;points=[];portConstraint=eastwest;strokeColor=inherit;" parent="GEZRF7LmWpL6LQjUL8pA-107" vertex="1">
          <mxGeometry y="78" width="160" height="8" as="geometry" />
        </mxCell>
        <mxCell id="GEZRF7LmWpL6LQjUL8pA-111" style="edgeStyle=orthogonalEdgeStyle;rounded=0;orthogonalLoop=1;jettySize=auto;html=1;entryX=1;entryY=0.5;entryDx=0;entryDy=0;endArrow=none;endFill=0;" parent="1" source="GEZRF7LmWpL6LQjUL8pA-86" target="GEZRF7LmWpL6LQjUL8pA-5" edge="1">
          <mxGeometry relative="1" as="geometry" />
        </mxCell>
        <mxCell id="GEZRF7LmWpL6LQjUL8pA-112" value="0.n" style="edgeLabel;html=1;align=center;verticalAlign=middle;resizable=0;points=[];" parent="GEZRF7LmWpL6LQjUL8pA-111" vertex="1" connectable="0">
          <mxGeometry x="-0.7777" y="-1" relative="1" as="geometry">
            <mxPoint as="offset" />
          </mxGeometry>
        </mxCell>
        <mxCell id="GEZRF7LmWpL6LQjUL8pA-113" value="1.1" style="edgeLabel;html=1;align=center;verticalAlign=middle;resizable=0;points=[];" parent="GEZRF7LmWpL6LQjUL8pA-111" vertex="1" connectable="0">
          <mxGeometry x="0.8202" relative="1" as="geometry">
            <mxPoint as="offset" />
          </mxGeometry>
        </mxCell>
        <mxCell id="GEZRF7LmWpL6LQjUL8pA-114" style="edgeStyle=orthogonalEdgeStyle;rounded=0;orthogonalLoop=1;jettySize=auto;html=1;entryX=0.5;entryY=0;entryDx=0;entryDy=0;endArrow=none;endFill=0;exitX=0.5;exitY=1;exitDx=0;exitDy=0;" parent="1" source="GEZRF7LmWpL6LQjUL8pA-82" target="GEZRF7LmWpL6LQjUL8pA-24" edge="1">
          <mxGeometry relative="1" as="geometry">
            <Array as="points">
              <mxPoint x="-2360" y="720" />
              <mxPoint x="-2400" y="720" />
              <mxPoint x="-2400" y="770" />
            </Array>
          </mxGeometry>
        </mxCell>
        <mxCell id="GEZRF7LmWpL6LQjUL8pA-115" value="1.1" style="edgeLabel;html=1;align=center;verticalAlign=middle;resizable=0;points=[];" parent="GEZRF7LmWpL6LQjUL8pA-114" vertex="1" connectable="0">
          <mxGeometry x="0.3516" relative="1" as="geometry">
            <mxPoint as="offset" />
          </mxGeometry>
        </mxCell>
        <mxCell id="GEZRF7LmWpL6LQjUL8pA-116" value="0.n" style="edgeLabel;html=1;align=center;verticalAlign=middle;resizable=0;points=[];" parent="GEZRF7LmWpL6LQjUL8pA-114" vertex="1" connectable="0">
          <mxGeometry x="-0.8913" relative="1" as="geometry">
            <mxPoint as="offset" />
          </mxGeometry>
        </mxCell>
        <mxCell id="GEZRF7LmWpL6LQjUL8pA-117" style="edgeStyle=orthogonalEdgeStyle;rounded=0;orthogonalLoop=1;jettySize=auto;html=1;entryX=1;entryY=0.5;entryDx=0;entryDy=0;endArrow=none;endFill=0;" parent="1" source="GEZRF7LmWpL6LQjUL8pA-7" target="GEZRF7LmWpL6LQjUL8pA-13" edge="1">
          <mxGeometry relative="1" as="geometry" />
        </mxCell>
        <mxCell id="GEZRF7LmWpL6LQjUL8pA-118" value="0.n" style="edgeLabel;html=1;align=center;verticalAlign=middle;resizable=0;points=[];" parent="GEZRF7LmWpL6LQjUL8pA-117" vertex="1" connectable="0">
          <mxGeometry x="-0.632" relative="1" as="geometry">
            <mxPoint x="-34" y="-1" as="offset" />
          </mxGeometry>
        </mxCell>
        <mxCell id="GEZRF7LmWpL6LQjUL8pA-119" value="1.1" style="edgeLabel;html=1;align=center;verticalAlign=middle;resizable=0;points=[];" parent="GEZRF7LmWpL6LQjUL8pA-117" vertex="1" connectable="0">
          <mxGeometry x="0.8605" y="1" relative="1" as="geometry">
            <mxPoint as="offset" />
          </mxGeometry>
        </mxCell>
        <mxCell id="GEZRF7LmWpL6LQjUL8pA-120" style="edgeStyle=orthogonalEdgeStyle;rounded=0;orthogonalLoop=1;jettySize=auto;html=1;entryX=1;entryY=0.5;entryDx=0;entryDy=0;endArrow=none;endFill=0;" parent="1" source="GEZRF7LmWpL6LQjUL8pA-17" target="GEZRF7LmWpL6LQjUL8pA-68" edge="1">
          <mxGeometry relative="1" as="geometry" />
        </mxCell>
        <mxCell id="GEZRF7LmWpL6LQjUL8pA-121" value="0.n" style="edgeLabel;html=1;align=center;verticalAlign=middle;resizable=0;points=[];" parent="GEZRF7LmWpL6LQjUL8pA-120" vertex="1" connectable="0">
          <mxGeometry x="-0.866" y="1" relative="1" as="geometry">
            <mxPoint as="offset" />
          </mxGeometry>
        </mxCell>
        <mxCell id="GEZRF7LmWpL6LQjUL8pA-122" value="1.1" style="edgeLabel;html=1;align=center;verticalAlign=middle;resizable=0;points=[];" parent="GEZRF7LmWpL6LQjUL8pA-120" vertex="1" connectable="0">
          <mxGeometry x="0.8913" y="-1" relative="1" as="geometry">
            <mxPoint x="9" as="offset" />
          </mxGeometry>
        </mxCell>
        <mxCell id="GEZRF7LmWpL6LQjUL8pA-123" style="edgeStyle=orthogonalEdgeStyle;rounded=0;orthogonalLoop=1;jettySize=auto;html=1;entryX=1;entryY=0.5;entryDx=0;entryDy=0;endArrow=none;endFill=0;" parent="1" target="GEZRF7LmWpL6LQjUL8pA-16" edge="1">
          <mxGeometry relative="1" as="geometry">
            <mxPoint x="-2640" y="603.0285714285715" as="sourcePoint" />
          </mxGeometry>
        </mxCell>
        <mxCell id="GEZRF7LmWpL6LQjUL8pA-124" value="0.n" style="edgeLabel;html=1;align=center;verticalAlign=middle;resizable=0;points=[];" parent="GEZRF7LmWpL6LQjUL8pA-123" vertex="1" connectable="0">
          <mxGeometry x="0.8516" y="-1" relative="1" as="geometry">
            <mxPoint x="3" y="1" as="offset" />
          </mxGeometry>
        </mxCell>
        <mxCell id="GEZRF7LmWpL6LQjUL8pA-125" value="0.n" style="edgeLabel;html=1;align=center;verticalAlign=middle;resizable=0;points=[];" parent="GEZRF7LmWpL6LQjUL8pA-123" vertex="1" connectable="0">
          <mxGeometry x="-0.5032" y="-1" relative="1" as="geometry">
            <mxPoint as="offset" />
          </mxGeometry>
        </mxCell>
        <mxCell id="GEZRF7LmWpL6LQjUL8pA-126" value="WebHook" style="swimlane;fontStyle=1;align=center;verticalAlign=top;childLayout=stackLayout;horizontal=1;startSize=26;horizontalStack=0;resizeParent=1;resizeParentMax=0;resizeLast=0;collapsible=1;marginBottom=0;whiteSpace=wrap;html=1;" parent="1" vertex="1">
          <mxGeometry x="-2790" y="800" width="160" height="164" as="geometry" />
        </mxCell>
        <mxCell id="GEZRF7LmWpL6LQjUL8pA-127" value="+ id: number" style="text;strokeColor=none;fillColor=none;align=left;verticalAlign=top;spacingLeft=4;spacingRight=4;overflow=hidden;rotatable=0;points=[[0,0.5],[1,0.5]];portConstraint=eastwest;whiteSpace=wrap;html=1;" parent="GEZRF7LmWpL6LQjUL8pA-126" vertex="1">
          <mxGeometry y="26" width="160" height="26" as="geometry" />
        </mxCell>
        <mxCell id="GEZRF7LmWpL6LQjUL8pA-128" value="+ url: string" style="text;strokeColor=none;fillColor=none;align=left;verticalAlign=top;spacingLeft=4;spacingRight=4;overflow=hidden;rotatable=0;points=[[0,0.5],[1,0.5]];portConstraint=eastwest;whiteSpace=wrap;html=1;" parent="GEZRF7LmWpL6LQjUL8pA-126" vertex="1">
          <mxGeometry y="52" width="160" height="26" as="geometry" />
        </mxCell>
        <mxCell id="GEZRF7LmWpL6LQjUL8pA-129" value="+ app: App" style="text;strokeColor=none;fillColor=none;align=left;verticalAlign=top;spacingLeft=4;spacingRight=4;overflow=hidden;rotatable=0;points=[[0,0.5],[1,0.5]];portConstraint=eastwest;whiteSpace=wrap;html=1;" parent="GEZRF7LmWpL6LQjUL8pA-126" vertex="1">
          <mxGeometry y="78" width="160" height="26" as="geometry" />
        </mxCell>
        <mxCell id="GEZRF7LmWpL6LQjUL8pA-130" value="+ createdAt: Date" style="text;strokeColor=none;fillColor=none;align=left;verticalAlign=top;spacingLeft=4;spacingRight=4;overflow=hidden;rotatable=0;points=[[0,0.5],[1,0.5]];portConstraint=eastwest;whiteSpace=wrap;html=1;" parent="GEZRF7LmWpL6LQjUL8pA-126" vertex="1">
          <mxGeometry y="104" width="160" height="26" as="geometry" />
        </mxCell>
        <mxCell id="GEZRF7LmWpL6LQjUL8pA-131" value="+ updatedAt: Date" style="text;strokeColor=none;fillColor=none;align=left;verticalAlign=top;spacingLeft=4;spacingRight=4;overflow=hidden;rotatable=0;points=[[0,0.5],[1,0.5]];portConstraint=eastwest;whiteSpace=wrap;html=1;" parent="GEZRF7LmWpL6LQjUL8pA-126" vertex="1">
          <mxGeometry y="130" width="160" height="26" as="geometry" />
        </mxCell>
        <mxCell id="GEZRF7LmWpL6LQjUL8pA-132" value="" style="line;strokeWidth=1;fillColor=none;align=left;verticalAlign=middle;spacingTop=-1;spacingLeft=3;spacingRight=3;rotatable=0;labelPosition=right;points=[];portConstraint=eastwest;strokeColor=inherit;" parent="GEZRF7LmWpL6LQjUL8pA-126" vertex="1">
          <mxGeometry y="156" width="160" height="8" as="geometry" />
        </mxCell>
        <mxCell id="GEZRF7LmWpL6LQjUL8pA-133" style="edgeStyle=orthogonalEdgeStyle;rounded=0;orthogonalLoop=1;jettySize=auto;html=1;endArrow=none;endFill=0;exitX=0.999;exitY=0.674;exitDx=0;exitDy=0;exitPerimeter=0;" parent="1" source="GEZRF7LmWpL6LQjUL8pA-129" target="GEZRF7LmWpL6LQjUL8pA-24" edge="1">
          <mxGeometry relative="1" as="geometry" />
        </mxCell>
        <mxCell id="GEZRF7LmWpL6LQjUL8pA-134" value="1.1" style="edgeLabel;html=1;align=center;verticalAlign=middle;resizable=0;points=[];" parent="GEZRF7LmWpL6LQjUL8pA-133" vertex="1" connectable="0">
          <mxGeometry x="0.6212" relative="1" as="geometry">
            <mxPoint as="offset" />
          </mxGeometry>
        </mxCell>
        <mxCell id="GEZRF7LmWpL6LQjUL8pA-135" value="0.n" style="edgeLabel;html=1;align=center;verticalAlign=middle;resizable=0;points=[];" parent="GEZRF7LmWpL6LQjUL8pA-133" vertex="1" connectable="0">
          <mxGeometry x="-0.7842" y="-1" relative="1" as="geometry">
            <mxPoint x="13" as="offset" />
          </mxGeometry>
        </mxCell>
        <mxCell id="yAE9XLFauvHRIwuhdHwT-4" value="Guest" style="swimlane;fontStyle=1;align=center;verticalAlign=top;childLayout=stackLayout;horizontal=1;startSize=26;horizontalStack=0;resizeParent=1;resizeParentMax=0;resizeLast=0;collapsible=1;marginBottom=0;whiteSpace=wrap;html=1;" vertex="1" parent="1">
          <mxGeometry x="-2840" y="340" width="160" height="138" as="geometry" />
        </mxCell>
        <mxCell id="yAE9XLFauvHRIwuhdHwT-5" value="+ user: User" style="text;strokeColor=none;fillColor=none;align=left;verticalAlign=top;spacingLeft=4;spacingRight=4;overflow=hidden;rotatable=0;points=[[0,0.5],[1,0.5]];portConstraint=eastwest;whiteSpace=wrap;html=1;" vertex="1" parent="yAE9XLFauvHRIwuhdHwT-4">
          <mxGeometry y="26" width="160" height="26" as="geometry" />
        </mxCell>
        <mxCell id="yAE9XLFauvHRIwuhdHwT-7" value="+ workSpace: WorkSpace" style="text;strokeColor=none;fillColor=none;align=left;verticalAlign=top;spacingLeft=4;spacingRight=4;overflow=hidden;rotatable=0;points=[[0,0.5],[1,0.5]];portConstraint=eastwest;whiteSpace=wrap;html=1;" vertex="1" parent="yAE9XLFauvHRIwuhdHwT-4">
          <mxGeometry y="52" width="160" height="26" as="geometry" />
        </mxCell>
        <mxCell id="yAE9XLFauvHRIwuhdHwT-10" value="+ createdAt: Date" style="text;strokeColor=none;fillColor=none;align=left;verticalAlign=top;spacingLeft=4;spacingRight=4;overflow=hidden;rotatable=0;points=[[0,0.5],[1,0.5]];portConstraint=eastwest;whiteSpace=wrap;html=1;" vertex="1" parent="yAE9XLFauvHRIwuhdHwT-4">
          <mxGeometry y="78" width="160" height="26" as="geometry" />
        </mxCell>
        <mxCell id="yAE9XLFauvHRIwuhdHwT-11" value="+ updatedAt: Date" style="text;strokeColor=none;fillColor=none;align=left;verticalAlign=top;spacingLeft=4;spacingRight=4;overflow=hidden;rotatable=0;points=[[0,0.5],[1,0.5]];portConstraint=eastwest;whiteSpace=wrap;html=1;" vertex="1" parent="yAE9XLFauvHRIwuhdHwT-4">
          <mxGeometry y="104" width="160" height="26" as="geometry" />
        </mxCell>
        <mxCell id="yAE9XLFauvHRIwuhdHwT-12" value="" style="line;strokeWidth=1;fillColor=none;align=left;verticalAlign=middle;spacingTop=-1;spacingLeft=3;spacingRight=3;rotatable=0;labelPosition=right;points=[];portConstraint=eastwest;strokeColor=inherit;" vertex="1" parent="yAE9XLFauvHRIwuhdHwT-4">
          <mxGeometry y="130" width="160" height="8" as="geometry" />
        </mxCell>
        <mxCell id="yAE9XLFauvHRIwuhdHwT-14" style="edgeStyle=orthogonalEdgeStyle;rounded=0;orthogonalLoop=1;jettySize=auto;html=1;entryX=1;entryY=0.5;entryDx=0;entryDy=0;endArrow=none;endFill=0;" edge="1" parent="1" source="yAE9XLFauvHRIwuhdHwT-5" target="GEZRF7LmWpL6LQjUL8pA-13">
          <mxGeometry relative="1" as="geometry" />
        </mxCell>
        <mxCell id="yAE9XLFauvHRIwuhdHwT-15" style="edgeStyle=orthogonalEdgeStyle;rounded=0;orthogonalLoop=1;jettySize=auto;html=1;entryX=0;entryY=0.5;entryDx=0;entryDy=0;endArrow=none;endFill=0;" edge="1" parent="1" source="yAE9XLFauvHRIwuhdHwT-7" target="GEZRF7LmWpL6LQjUL8pA-5">
          <mxGeometry relative="1" as="geometry" />
        </mxCell>
        <mxCell id="yAE9XLFauvHRIwuhdHwT-16" value="Subscription" style="swimlane;fontStyle=1;align=center;verticalAlign=top;childLayout=stackLayout;horizontal=1;startSize=26;horizontalStack=0;resizeParent=1;resizeParentMax=0;resizeLast=0;collapsible=1;marginBottom=0;whiteSpace=wrap;html=1;" vertex="1" parent="1">
          <mxGeometry x="-3320" y="600" width="160" height="190" as="geometry" />
        </mxCell>
        <mxCell id="yAE9XLFauvHRIwuhdHwT-17" value="+ id: number" style="text;strokeColor=none;fillColor=none;align=left;verticalAlign=top;spacingLeft=4;spacingRight=4;overflow=hidden;rotatable=0;points=[[0,0.5],[1,0.5]];portConstraint=eastwest;whiteSpace=wrap;html=1;" vertex="1" parent="yAE9XLFauvHRIwuhdHwT-16">
          <mxGeometry y="26" width="160" height="26" as="geometry" />
        </mxCell>
        <mxCell id="yAE9XLFauvHRIwuhdHwT-18" value="+ name: string" style="text;strokeColor=none;fillColor=none;align=left;verticalAlign=top;spacingLeft=4;spacingRight=4;overflow=hidden;rotatable=0;points=[[0,0.5],[1,0.5]];portConstraint=eastwest;whiteSpace=wrap;html=1;" vertex="1" parent="yAE9XLFauvHRIwuhdHwT-16">
          <mxGeometry y="52" width="160" height="26" as="geometry" />
        </mxCell>
        <mxCell id="yAE9XLFauvHRIwuhdHwT-34" value="+ price: number" style="text;strokeColor=none;fillColor=none;align=left;verticalAlign=top;spacingLeft=4;spacingRight=4;overflow=hidden;rotatable=0;points=[[0,0.5],[1,0.5]];portConstraint=eastwest;whiteSpace=wrap;html=1;" vertex="1" parent="yAE9XLFauvHRIwuhdHwT-16">
          <mxGeometry y="78" width="160" height="26" as="geometry" />
        </mxCell>
        <mxCell id="yAE9XLFauvHRIwuhdHwT-35" value="+ discount: number" style="text;strokeColor=none;fillColor=none;align=left;verticalAlign=top;spacingLeft=4;spacingRight=4;overflow=hidden;rotatable=0;points=[[0,0.5],[1,0.5]];portConstraint=eastwest;whiteSpace=wrap;html=1;" vertex="1" parent="yAE9XLFauvHRIwuhdHwT-16">
          <mxGeometry y="104" width="160" height="26" as="geometry" />
        </mxCell>
        <mxCell id="yAE9XLFauvHRIwuhdHwT-19" value="+ createdAt: Date" style="text;strokeColor=none;fillColor=none;align=left;verticalAlign=top;spacingLeft=4;spacingRight=4;overflow=hidden;rotatable=0;points=[[0,0.5],[1,0.5]];portConstraint=eastwest;whiteSpace=wrap;html=1;" vertex="1" parent="yAE9XLFauvHRIwuhdHwT-16">
          <mxGeometry y="130" width="160" height="26" as="geometry" />
        </mxCell>
        <mxCell id="yAE9XLFauvHRIwuhdHwT-20" value="+ updatedAt: Date" style="text;strokeColor=none;fillColor=none;align=left;verticalAlign=top;spacingLeft=4;spacingRight=4;overflow=hidden;rotatable=0;points=[[0,0.5],[1,0.5]];portConstraint=eastwest;whiteSpace=wrap;html=1;" vertex="1" parent="yAE9XLFauvHRIwuhdHwT-16">
          <mxGeometry y="156" width="160" height="26" as="geometry" />
        </mxCell>
        <mxCell id="yAE9XLFauvHRIwuhdHwT-21" value="" style="line;strokeWidth=1;fillColor=none;align=left;verticalAlign=middle;spacingTop=-1;spacingLeft=3;spacingRight=3;rotatable=0;labelPosition=right;points=[];portConstraint=eastwest;strokeColor=inherit;" vertex="1" parent="yAE9XLFauvHRIwuhdHwT-16">
          <mxGeometry y="182" width="160" height="8" as="geometry" />
        </mxCell>
        <mxCell id="yAE9XLFauvHRIwuhdHwT-23" style="edgeStyle=orthogonalEdgeStyle;rounded=0;orthogonalLoop=1;jettySize=auto;html=1;entryX=1;entryY=0.5;entryDx=0;entryDy=0;endArrow=none;endFill=0;" edge="1" parent="1" source="GEZRF7LmWpL6LQjUL8pA-18" target="yAE9XLFauvHRIwuhdHwT-17">
          <mxGeometry relative="1" as="geometry" />
        </mxCell>
        <mxCell id="yAE9XLFauvHRIwuhdHwT-24" value="1.1" style="edgeLabel;html=1;align=center;verticalAlign=middle;resizable=0;points=[];" vertex="1" connectable="0" parent="yAE9XLFauvHRIwuhdHwT-23">
          <mxGeometry x="0.8401" y="-1" relative="1" as="geometry">
            <mxPoint x="13" y="1" as="offset" />
          </mxGeometry>
        </mxCell>
        <mxCell id="yAE9XLFauvHRIwuhdHwT-33" value="0.n" style="edgeLabel;html=1;align=center;verticalAlign=middle;resizable=0;points=[];" vertex="1" connectable="0" parent="yAE9XLFauvHRIwuhdHwT-23">
          <mxGeometry x="-0.6694" y="1" relative="1" as="geometry">
            <mxPoint as="offset" />
          </mxGeometry>
        </mxCell>
        <mxCell id="yAE9XLFauvHRIwuhdHwT-25" value="Feature" style="swimlane;fontStyle=1;align=center;verticalAlign=top;childLayout=stackLayout;horizontal=1;startSize=26;horizontalStack=0;resizeParent=1;resizeParentMax=0;resizeLast=0;collapsible=1;marginBottom=0;whiteSpace=wrap;html=1;" vertex="1" parent="1">
          <mxGeometry x="-3840" y="600" width="160" height="138" as="geometry" />
        </mxCell>
        <mxCell id="yAE9XLFauvHRIwuhdHwT-26" value="+ id: number" style="text;strokeColor=none;fillColor=none;align=left;verticalAlign=top;spacingLeft=4;spacingRight=4;overflow=hidden;rotatable=0;points=[[0,0.5],[1,0.5]];portConstraint=eastwest;whiteSpace=wrap;html=1;" vertex="1" parent="yAE9XLFauvHRIwuhdHwT-25">
          <mxGeometry y="26" width="160" height="26" as="geometry" />
        </mxCell>
        <mxCell id="yAE9XLFauvHRIwuhdHwT-31" value="+ name: string" style="text;strokeColor=none;fillColor=none;align=left;verticalAlign=top;spacingLeft=4;spacingRight=4;overflow=hidden;rotatable=0;points=[[0,0.5],[1,0.5]];portConstraint=eastwest;whiteSpace=wrap;html=1;" vertex="1" parent="yAE9XLFauvHRIwuhdHwT-25">
          <mxGeometry y="52" width="160" height="26" as="geometry" />
        </mxCell>
        <mxCell id="yAE9XLFauvHRIwuhdHwT-28" value="+ createdAt: Date" style="text;strokeColor=none;fillColor=none;align=left;verticalAlign=top;spacingLeft=4;spacingRight=4;overflow=hidden;rotatable=0;points=[[0,0.5],[1,0.5]];portConstraint=eastwest;whiteSpace=wrap;html=1;" vertex="1" parent="yAE9XLFauvHRIwuhdHwT-25">
          <mxGeometry y="78" width="160" height="26" as="geometry" />
        </mxCell>
        <mxCell id="yAE9XLFauvHRIwuhdHwT-29" value="+ updatedAt: Date" style="text;strokeColor=none;fillColor=none;align=left;verticalAlign=top;spacingLeft=4;spacingRight=4;overflow=hidden;rotatable=0;points=[[0,0.5],[1,0.5]];portConstraint=eastwest;whiteSpace=wrap;html=1;" vertex="1" parent="yAE9XLFauvHRIwuhdHwT-25">
          <mxGeometry y="104" width="160" height="26" as="geometry" />
        </mxCell>
        <mxCell id="yAE9XLFauvHRIwuhdHwT-30" value="" style="line;strokeWidth=1;fillColor=none;align=left;verticalAlign=middle;spacingTop=-1;spacingLeft=3;spacingRight=3;rotatable=0;labelPosition=right;points=[];portConstraint=eastwest;strokeColor=inherit;" vertex="1" parent="yAE9XLFauvHRIwuhdHwT-25">
          <mxGeometry y="130" width="160" height="8" as="geometry" />
        </mxCell>
        <mxCell id="yAE9XLFauvHRIwuhdHwT-38" value="SubscriptionFeature" style="swimlane;fontStyle=1;align=center;verticalAlign=top;childLayout=stackLayout;horizontal=1;startSize=26;horizontalStack=0;resizeParent=1;resizeParentMax=0;resizeLast=0;collapsible=1;marginBottom=0;whiteSpace=wrap;html=1;" vertex="1" parent="1">
          <mxGeometry x="-3580" y="600" width="160" height="138" as="geometry" />
        </mxCell>
        <mxCell id="yAE9XLFauvHRIwuhdHwT-39" value="+ subscription: Subscription" style="text;strokeColor=none;fillColor=none;align=left;verticalAlign=top;spacingLeft=4;spacingRight=4;overflow=hidden;rotatable=0;points=[[0,0.5],[1,0.5]];portConstraint=eastwest;whiteSpace=wrap;html=1;" vertex="1" parent="yAE9XLFauvHRIwuhdHwT-38">
          <mxGeometry y="26" width="160" height="26" as="geometry" />
        </mxCell>
        <mxCell id="yAE9XLFauvHRIwuhdHwT-40" value="+ feature: Feature" style="text;strokeColor=none;fillColor=none;align=left;verticalAlign=top;spacingLeft=4;spacingRight=4;overflow=hidden;rotatable=0;points=[[0,0.5],[1,0.5]];portConstraint=eastwest;whiteSpace=wrap;html=1;" vertex="1" parent="yAE9XLFauvHRIwuhdHwT-38">
          <mxGeometry y="52" width="160" height="26" as="geometry" />
        </mxCell>
        <mxCell id="yAE9XLFauvHRIwuhdHwT-42" value="+ createdAt: Date" style="text;strokeColor=none;fillColor=none;align=left;verticalAlign=top;spacingLeft=4;spacingRight=4;overflow=hidden;rotatable=0;points=[[0,0.5],[1,0.5]];portConstraint=eastwest;whiteSpace=wrap;html=1;" vertex="1" parent="yAE9XLFauvHRIwuhdHwT-38">
          <mxGeometry y="78" width="160" height="26" as="geometry" />
        </mxCell>
        <mxCell id="yAE9XLFauvHRIwuhdHwT-43" value="+ updatedAt: Date" style="text;strokeColor=none;fillColor=none;align=left;verticalAlign=top;spacingLeft=4;spacingRight=4;overflow=hidden;rotatable=0;points=[[0,0.5],[1,0.5]];portConstraint=eastwest;whiteSpace=wrap;html=1;" vertex="1" parent="yAE9XLFauvHRIwuhdHwT-38">
          <mxGeometry y="104" width="160" height="26" as="geometry" />
        </mxCell>
        <mxCell id="yAE9XLFauvHRIwuhdHwT-44" value="" style="line;strokeWidth=1;fillColor=none;align=left;verticalAlign=middle;spacingTop=-1;spacingLeft=3;spacingRight=3;rotatable=0;labelPosition=right;points=[];portConstraint=eastwest;strokeColor=inherit;" vertex="1" parent="yAE9XLFauvHRIwuhdHwT-38">
          <mxGeometry y="130" width="160" height="8" as="geometry" />
        </mxCell>
        <mxCell id="yAE9XLFauvHRIwuhdHwT-45" style="edgeStyle=orthogonalEdgeStyle;rounded=0;orthogonalLoop=1;jettySize=auto;html=1;entryX=1;entryY=0.5;entryDx=0;entryDy=0;endArrow=none;endFill=0;" edge="1" parent="1" source="yAE9XLFauvHRIwuhdHwT-40" target="yAE9XLFauvHRIwuhdHwT-26">
          <mxGeometry relative="1" as="geometry" />
        </mxCell>
        <mxCell id="yAE9XLFauvHRIwuhdHwT-47" value="1.1" style="edgeLabel;html=1;align=center;verticalAlign=middle;resizable=0;points=[];" vertex="1" connectable="0" parent="yAE9XLFauvHRIwuhdHwT-45">
          <mxGeometry x="0.7778" y="1" relative="1" as="geometry">
            <mxPoint x="6" y="-1" as="offset" />
          </mxGeometry>
        </mxCell>
        <mxCell id="yAE9XLFauvHRIwuhdHwT-50" value="0.n" style="edgeLabel;html=1;align=center;verticalAlign=middle;resizable=0;points=[];" vertex="1" connectable="0" parent="yAE9XLFauvHRIwuhdHwT-45">
          <mxGeometry x="-0.746" y="2" relative="1" as="geometry">
            <mxPoint as="offset" />
          </mxGeometry>
        </mxCell>
        <mxCell id="yAE9XLFauvHRIwuhdHwT-46" style="edgeStyle=orthogonalEdgeStyle;rounded=0;orthogonalLoop=1;jettySize=auto;html=1;entryX=0;entryY=0.5;entryDx=0;entryDy=0;endArrow=none;endFill=0;" edge="1" parent="1" source="yAE9XLFauvHRIwuhdHwT-39" target="yAE9XLFauvHRIwuhdHwT-17">
          <mxGeometry relative="1" as="geometry" />
        </mxCell>
        <mxCell id="yAE9XLFauvHRIwuhdHwT-48" value="1.1" style="edgeLabel;html=1;align=center;verticalAlign=middle;resizable=0;points=[];" vertex="1" connectable="0" parent="yAE9XLFauvHRIwuhdHwT-46">
          <mxGeometry x="0.6" y="-1" relative="1" as="geometry">
            <mxPoint as="offset" />
          </mxGeometry>
        </mxCell>
        <mxCell id="yAE9XLFauvHRIwuhdHwT-51" value="1.n" style="edgeLabel;html=1;align=center;verticalAlign=middle;resizable=0;points=[];" vertex="1" connectable="0" parent="yAE9XLFauvHRIwuhdHwT-46">
          <mxGeometry x="-0.552" y="-2" relative="1" as="geometry">
            <mxPoint as="offset" />
          </mxGeometry>
        </mxCell>
      </root>
    </mxGraphModel>
  </diagram>
</mxfile>
